<?xml version="1.0" ?><svg width="64px" height="64px" viewBox="0 0 64 64" id="TwoTone" xmlns="http://www.w3.org/2000/svg"><title/><desc/><g data-name="Stroke copy 3" id="Stroke_copy_3"><rect height="16" style="fill:#a8dba8" width="4" x="55" y="29"/><path d="M57,23h0a2,2,0,0,1,2,2v4a0,0,0,0,1,0,0H55a0,0,0,0,1,0,0V25A2,2,0,0,1,57,23Z" style="fill:#cff09e"/><path d="M47,41h8a0,0,0,0,1,0,0v4a0,0,0,0,1,0,0H45a0,0,0,0,1,0,0V43A2,2,0,0,1,47,41Z" style="fill:#a8dba8"/><circle cx="48" cy="54" r="2" style="fill:#79bd9a"/><circle cx="58" cy="54" r="2" style="fill:#79bd9a"/><path d="M25,33H21v4H44V35H27A2,2,0,0,1,25,33Z" style="fill:#cff09e"/><rect height="4" style="fill:#cff09e" width="6" x="3" y="33"/><path d="M37,40V36H33V54h4V51a2,2,0,0,1-2-2V42A2,2,0,0,1,37,40Z" style="fill:#cff09e"/><path d="M25,5V3H21V19H49V15H35A10,10,0,0,1,25,5Z" style="fill:#cff09e"/><rect height="6" style="fill:#79bd9a" width="6" x="26" y="8"/><path d="M36,27a2,2,0,0,1-2-2,2,2,0,0,1,.18-.82,2,2,0,1,0,2.64,2.64A2,2,0,0,1,36,27Z" style="fill:#cff09e"/><circle cx="9" cy="54" r="2" style="fill:#79bd9a"/><circle cx="21" cy="54" r="2" style="fill:#79bd9a"/><path d="M11,29h8a2,2,0,0,1,2,2V45a0,0,0,0,1,0,0H9a0,0,0,0,1,0,0V31A2,2,0,0,1,11,29Z" style="fill:#a8dba8"/><rect height="6" rx="3" ry="3" style="fill:#cff09e" width="6" x="12" y="23"/></g><g data-name="Stroke Close copy 3" id="Stroke_Close_copy_3"><path d="M58,51H54V46h5a1,1,0,0,0,1-1V25a3,3,0,0,0-6,0V36H49a1,1,0,0,0,0,2h5v2H47a3,3,0,0,0-3,3v2a1,1,0,0,0,1,1h7v5H48a3,3,0,1,0,2.82,2h4.36A3,3,0,1,0,58,51ZM56,25a1,1,0,0,1,2,0v3H56Zm1,11H56V30h2V44H56V38h1a1,1,0,0,0,0-2ZM46,43a1,1,0,0,1,1-1h7v2H46Zm3,11a1,1,0,1,1-1-1A1,1,0,0,1,49,54Zm9,1a1,1,0,1,1,1-1A1,1,0,0,1,58,55Z" style="fill:#3b8686"/><path d="M40,54H38V38h6a1,1,0,0,0,1-1V33a1,1,0,0,0-1-1H22V31a3,3,0,0,0-3-3h-.56A3.91,3.91,0,0,0,19,26a4,4,0,0,0-8,0,3.91,3.91,0,0,0,.56,2H11a3,3,0,0,0-3,3v1H3a1,1,0,0,0,0,2H8v2H3a1,1,0,0,0,0,2H4v1a3,3,0,0,0,3,3H8v3a1,1,0,0,0,1,1h5v5H9a3,3,0,1,0,2.82,2h6.36A3,3,0,1,0,21,51H16V46h5a1,1,0,0,0,1-1V42h1a3,3,0,0,0,3-3V38h6V54H30a1,1,0,0,0,0,2H40a1,1,0,0,0,0-2ZM10,54a1,1,0,1,1-1-1A1,1,0,0,1,10,54Zm11,1a1,1,0,1,1,1-1A1,1,0,0,1,21,55ZM13,26a2,2,0,1,1,2,2A2,2,0,0,1,13,26ZM7,40a1,1,0,0,1-1-1V38H8v2Zm13,4H16V38a1,1,0,0,0-2,0v6H10V31a1,1,0,0,1,1-1h8a1,1,0,0,1,1,1Zm4-5a1,1,0,0,1-1,1H22V38h2Zm-2-3V34H43v2ZM34,54V38h2V54Z" style="fill:#3b8686"/><path d="M19,20H34v3.18a3,3,0,1,0,2,0V20H51a1,1,0,0,0,0-2H50V3a1,1,0,0,0-1-1H21a1,1,0,0,0-1,1V18H19a1,1,0,0,0,0,2Zm16,7a1,1,0,1,1,1-1A1,1,0,0,1,35,27ZM22,4H48V18H22Z" style="fill:#3b8686"/><path d="M32,7H26a1,1,0,0,0-1,1v6a1,1,0,0,0,1,1h6a1,1,0,0,0,1-1V8A1,1,0,0,0,32,7Zm-1,6H27V9h4Z" style="fill:#3b8686"/><path d="M40,9h4a1,1,0,0,0,0-2H40a1,1,0,0,0,0,2Z" style="fill:#3b8686"/><path d="M37,14h7a1,1,0,0,0,0-2H37a1,1,0,0,0,0,2Z" style="fill:#3b8686"/></g></svg>